<svg width="154" height="155" viewBox="0 0 154 155" fill="none" xmlns="http://www.w3.org/2000/svg">
<path d="M105.838 58C105.554 54.4489 104.222 51.679 101.843 49.6903C99.4993 47.7017 95.9304 46.7074 91.1364 46.7074C88.0824 46.7074 85.5788 47.0803 83.6257 47.826C81.7081 48.5362 80.2876 49.5128 79.3643 50.7557C78.4411 51.9986 77.9616 53.419 77.9261 55.017C77.8551 56.331 78.0859 57.5206 78.6186 58.5859C79.1868 59.6158 80.0746 60.5568 81.282 61.4091C82.4893 62.2259 84.0341 62.9716 85.9162 63.6463C87.7983 64.321 90.0355 64.9247 92.6278 65.4574L101.577 67.375C107.614 68.6534 112.781 70.3402 117.077 72.4354C121.374 74.5305 124.89 76.9986 127.624 79.8395C130.359 82.6449 132.365 85.8054 133.643 89.321C134.957 92.8366 135.632 96.6719 135.668 100.827C135.632 108 133.839 114.072 130.288 119.044C126.737 124.016 121.658 127.798 115.053 130.39C108.484 132.982 100.582 134.278 91.3494 134.278C81.8679 134.278 73.5938 132.876 66.527 130.07C59.4957 127.265 54.027 122.95 50.1207 117.126C46.25 111.267 44.2969 103.774 44.2614 94.6477H72.3864C72.5639 97.9858 73.3984 100.791 74.8899 103.064C76.3814 105.337 78.4766 107.059 81.1754 108.231C83.9098 109.403 87.1591 109.989 90.9233 109.989C94.0838 109.989 96.7294 109.598 98.8601 108.817C100.991 108.036 102.607 106.952 103.707 105.567C104.808 104.183 105.376 102.602 105.412 100.827C105.376 99.1577 104.826 97.7017 103.761 96.4588C102.731 95.1804 101.026 94.044 98.647 93.0497C96.2678 92.0199 93.054 91.0611 89.0057 90.1733L78.1392 87.8295C68.4801 85.7344 60.8629 82.2365 55.2876 77.3359C49.7479 72.3999 46.9957 65.6705 47.0312 57.1477C46.9957 50.223 48.8423 44.1683 52.571 38.9837C56.3352 33.7635 61.5376 29.6974 68.1783 26.7855C74.8544 23.8736 82.5071 22.4176 91.1364 22.4176C99.9432 22.4176 107.56 23.8913 113.988 26.8388C120.415 29.7862 125.369 33.9411 128.849 39.3033C132.365 44.63 134.141 50.8622 134.176 58H105.838Z" fill="#42AFEB"/>
</svg>
